# xmcd CD database file
#
# Track frame offsets:
#	150
#	15375
#	34927
#
# Disc length: 761 seconds
#
# Revision: 0
# Processed by: cddbd v1.4PL0 Copyright (c) Steve Scherf et al.
# Submitted via: CdAid 2001.05.15.01
#
DISCID=1802f703
DTITLE=The Cramps - Eyeball In My Martini
DYEAR=1900
DGENRE=
TTITLE0=Eyeball In My Martini
TTITLE1=I Wanna Get In Your Pants
TTITLE2=Wilder Wilder Faster Faster
EXTD=Rest In Rock Brian Gregory 2002
EXTT0=
EXTT1=
EXTT2=
PLAYORDER=
